<?xml version="1.0" encoding="UTF-8"?>
<svg width="557px" height="107px" viewBox="0 0 557 107" version="1.1" xmlns="http://www.w3.org/2000/svg" xmlns:xlink="http://www.w3.org/1999/xlink">
    <!-- Generator: Sketch 52.6 (67491) - http://www.bohemiancoding.com/sketch -->
    <title>Group</title>
    <desc>Created with Sketch.</desc>
    <defs>
        <linearGradient x1="0.25781251%" y1="49.7500002%" x2="101.257813%" y2="49.7500002%" id="linearGradient-1">
            <stop stop-color="#3023AE" offset="0%"></stop>
            <stop stop-color="#53A0FD" offset="47.5247532%"></stop>
            <stop stop-color="#B4EC51" offset="100%"></stop>
        </linearGradient>
    </defs>
    <g id="Page-2" stroke="none" stroke-width="1" fill="none" fill-rule="evenodd">
        <g id="Artboard" transform="translate(-37.000000, -111.000000)">
            <g id="Group" transform="translate(37.000000, 111.000000)">
                <polygon id="Path-Copy-2" fill="url(#linearGradient-1)" points="555.926273 105.836431 0 105.836431 6.06975622 93 543.657461 93"></polygon>
                <path d="M75.9626938,105.231616 L66.5915952,80.4544832 L24.9895965,80.4544832 L15.6184978,105.231616 L0,105.231616 L38.4782991,5.5534953 L54.0967969,5.5534953 L92.2911233,105.231616 L75.9626938,105.231616 Z M38.1943264,45.7095383 L30.6690502,65.6451624 L61.0541277,65.6451624 L53.2448789,45.139949 C52.0143244,41.8173284 50.7837884,38.2336984 49.5532339,34.3889517 C48.3226795,30.5442049 47.0921434,26.6757832 45.861589,22.7835705 C44.5363765,26.7707152 43.234848,30.7578002 41.9569645,34.744945 C40.6790811,38.7320897 39.4248809,42.3869176 38.1943264,45.7095383 Z M137.838262,45.2823463 L120.231955,45.2823463 L120.231955,105.231616 L105.465375,105.231616 L105.465375,45.2823463 L93.5385224,45.2823463 L93.5385224,31.7546013 L105.465375,31.7546013 L105.465375,22.0715839 C105.465375,15.6162066 107.524157,10.323826 111.641781,6.19428322 C115.759406,2.06474043 121.08384,6.39488462e-14 127.615245,6.39488462e-14 C131.401566,6.39488462e-14 134.548899,0.711979457 137.057337,2.13595973 C139.565775,3.55994001 141.387915,4.93643362 142.523811,6.26548188 L137.554289,17.5148698 C136.607709,16.5655496 135.377173,15.6874416 133.862644,14.8805195 C132.348115,14.0735973 130.83361,13.6701423 129.319081,13.6701423 C125.911392,13.6701423 123.544976,14.4770523 122.219764,16.0908966 C120.894551,17.704741 120.231955,19.6982834 120.231955,22.0715839 L120.231955,31.7546013 L137.838262,31.7546013 L137.838262,45.2823463 Z M176.600533,105.231616 L161.97594,105.231616 L161.97594,44.712757 L146.499429,44.712757 L146.499429,30.4730255 L161.97594,30.4730255 L161.97594,11.3917852 L176.600533,11.3917852 L176.600533,30.4730255 L193.922867,30.4730255 L193.922867,44.712757 L176.600533,44.712757 L176.600533,105.231616 Z M270.642822,95.308051 L270.500835,95.308051 C267.471778,98.2509436 263.306887,100.861535 258.006037,103.139903 C252.705187,105.418272 247.167775,106.557439 241.393635,106.557439 C233.631676,106.557439 226.792736,104.919886 220.876608,101.644732 C214.960481,98.3695769 210.345971,93.8603737 207.03294,88.1169866 C203.719909,82.3735995 202.063418,75.8471211 202.063418,68.5373557 C202.063418,60.1833381 203.814565,53.0398109 207.316912,47.1065597 C210.81926,41.1733086 215.457434,36.6166401 221.231574,33.4364174 C227.005714,30.2561948 233.300379,28.6661074 240.115758,28.6661074 C246.363188,28.6661074 252.042585,30.2087295 257.154119,33.2940201 C262.265653,36.3793107 266.335887,40.6274548 269.364945,46.0385799 C272.394002,51.4497049 273.908508,57.7625894 273.908508,64.9774228 L273.766521,71.2429047 L216.688011,71.2429047 C217.539933,77.983078 220.308639,83.3229239 224.994212,87.2626027 C229.679785,91.2022814 235.619488,93.1720913 242.813498,93.1720913 C248.01969,93.1720913 252.23191,92.1990527 255.450283,90.2529463 C258.668656,88.3068399 261.319041,86.4319607 263.401518,84.6282523 L270.642822,95.308051 Z M239.713463,44.4991611 C234.128639,44.4991611 229.253823,45.8044567 225.08887,48.4150872 C220.923916,51.0257178 218.178874,55.5111883 216.853662,61.8716336 L258.597647,61.8716336 L258.597647,60.8748523 C258.313673,57.6471637 257.248786,54.7992459 255.402954,52.3310134 C253.557122,49.8627809 251.2617,47.9404364 248.516617,46.5639221 C245.771533,45.1874079 242.837178,44.4991611 239.713463,44.4991611 Z M329.803798,46.2791275 C328.857218,45.8044674 327.697674,45.4010124 326.325133,45.0687503 C324.952591,44.7364883 323.509078,44.5703597 321.994549,44.5703597 C318.965492,44.5703597 315.983809,45.3535371 313.049409,46.9199154 C310.11501,48.4862937 307.677603,50.7171627 305.737113,53.6125893 C303.796623,56.5080158 302.826393,59.9492499 302.826393,63.9363946 L302.826393,105.231616 L288.059813,105.231616 L288.059813,30.4730255 L302.826393,30.4730255 L302.826393,44.5703597 C304.90887,40.0136229 308.056202,36.2638644 312.268485,33.3209718 C316.480767,30.3780792 320.905964,28.906655 325.544208,28.906655 C329.046555,28.906655 331.744269,29.381308 333.637429,30.3306282 L329.803798,46.2791275 Z M371.121824,105.231616 L356.497231,105.231616 L356.497231,44.712757 L341.020719,44.712757 L341.020719,30.4730255 L356.497231,30.4730255 L356.497231,11.3917852 L371.121824,11.3917852 L371.121824,30.4730255 L388.444158,30.4730255 L388.444158,44.712757 L371.121824,44.712757 L371.121824,105.231616 Z M469.660346,30.4730255 L469.660346,105.231616 L454.893767,105.231616 L454.893767,93.6974336 C452.621974,96.8301902 449.261664,99.7730386 444.812736,102.526067 C440.363809,105.279096 435.205023,106.655589 429.336225,106.655589 C423.088794,106.655589 417.385733,104.994304 412.22687,101.671683 C407.068007,98.3490626 402.974109,93.7449288 399.945052,87.8591436 C396.915995,81.9733585 395.401489,75.2332863 395.401489,67.6387248 C395.401489,60.0441634 396.963323,53.3278238 400.087038,47.4895047 C403.210753,41.6511856 407.517629,37.094517 413.007795,33.8193624 C418.497961,30.5442078 424.745298,28.906655 431.749993,28.906655 C436.956185,28.906655 441.523366,30.0458222 445.451675,32.3241906 C449.379983,34.602559 452.527316,37.2606157 454.893767,40.2984403 L454.893767,30.4730255 L469.660346,30.4730255 Z M432.743897,93.1278443 C437.287483,93.1278443 441.263061,92.0124098 444.67075,89.7815074 C448.078439,87.550605 450.728824,84.5128259 452.621985,80.6680792 C454.515146,76.8233325 455.461712,72.4802578 455.461712,67.6387248 C455.461712,62.8921239 454.515146,58.6202472 452.621985,54.8229664 C450.728824,51.0256857 448.078439,48.0116393 444.67075,45.7807369 C441.263061,43.5498345 437.287483,42.4344 432.743897,42.4344 C428.389627,42.4344 424.508706,43.5261018 421.101017,45.7095383 C417.693328,47.8929747 415.042942,50.8832884 413.149782,54.6805691 C411.256621,58.4778499 410.310055,62.7971919 410.310055,67.6387248 C410.310055,72.4802578 411.256621,76.8233325 413.149782,80.6680792 C415.042942,84.5128259 417.693328,87.550605 421.101017,89.7815074 C424.508706,92.0124098 428.389627,93.1278443 432.743897,93.1278443 Z M481.303226,105.231616 L509.984468,67.7811221 L481.16124,30.4730255 L499.619465,30.4730255 L519.781526,56.8165289 L536.819887,30.4730255 L554.142221,30.4730255 L527.732761,67.3539302 L556.697975,105.231616 L538.807696,105.231616 L518.361662,78.6033181 L498.483574,105.374013 L481.303226,105.231616 Z" id="Aftertax" fill="#000000"></path>
            </g>
        </g>
    </g>
</svg>